<?xml version="1.0" encoding="iso-8859-1"?>
<!-- Generator: Adobe Illustrator 17.1.0, SVG Export Plug-In . SVG Version: 6.00 Build 0)  -->
<!DOCTYPE svg PUBLIC "-//W3C//DTD SVG 1.1//EN" "http://www.w3.org/Graphics/SVG/1.1/DTD/svg11.dtd">
<svg version="1.1" id="Capa_1" xmlns="http://www.w3.org/2000/svg" xmlns:xlink="http://www.w3.org/1999/xlink" x="0px" y="0px"
	 viewBox="0 0 454 454" style="enable-background:new 0 0 454 454;" xml:space="preserve">
<g>
	<path d="M387.514,66.486C344.639,23.612,287.634,0,227,0S109.361,23.612,66.486,66.486C23.612,109.361,0,166.366,0,227
		s23.612,117.639,66.486,160.514C109.361,430.388,166.366,454,227,454s117.639-23.612,160.514-66.486
		C430.388,344.639,454,287.634,454,227S430.388,109.361,387.514,66.486z M227,434c-114.141,0-207-92.859-207-207S112.859,20,227,20
		s207,92.859,207,207S341.141,434,227,434z"/>
	<path d="M227,50.677c-97.225,0-176.323,79.099-176.323,176.323S129.775,403.323,227,403.323S403.323,324.225,403.323,227
		S324.225,50.677,227,50.677z M227,383.323c-86.197,0-156.323-70.126-156.323-156.323S140.803,70.677,227,70.677
		S383.323,140.803,383.323,227S313.197,383.323,227,383.323z"/>
	<path d="M227,101.354c-69.281,0-125.646,56.365-125.646,125.646c0,41.358,20.09,78.108,51.019,101.018
		c0.247,0.221,0.503,0.434,0.775,0.632c0.262,0.19,0.533,0.362,0.809,0.524c20.598,14.768,45.823,23.473,73.044,23.473
		c27.221,0,52.445-8.705,73.043-23.472c0.275-0.162,0.547-0.334,0.81-0.525c0.272-0.198,0.528-0.411,0.775-0.632
		c30.929-22.909,51.019-59.66,51.019-101.018C352.646,157.719,296.281,101.354,227,101.354z M322.225,181.264h-61.995
		l-19.161-58.971C276.89,127.081,307.091,149.882,322.225,181.264z M259.5,243.74l16.453,50.639l-43.075-31.296
		c-1.753-1.273-3.815-1.91-5.878-1.91s-4.125,0.637-5.878,1.91l-43.075,31.296L194.5,243.74c1.339-4.12-0.128-8.634-3.633-11.18
		l-43.076-31.297h53.245c4.332,0,8.172-2.79,9.511-6.91L227,143.715l16.453,50.639c1.339,4.12,5.179,6.91,9.511,6.91h53.245
		l-43.076,31.297C259.628,235.106,258.161,239.62,259.5,243.74z M212.931,122.292l-19.161,58.971h-61.995
		C146.909,149.882,177.11,127.081,212.931,122.292z M121.354,227c0-6.478,0.589-12.82,1.711-18.979l50.169,36.449l-19.143,58.917
		C133.931,284.136,121.354,257.009,121.354,227z M176.854,319.967L227,283.533l50.146,36.434
		c-14.928,8.084-32.01,12.68-50.146,12.68S191.782,328.051,176.854,319.967z M299.909,303.386l-19.143-58.917l50.169-36.449
		c1.122,6.159,1.711,12.501,1.711,18.979C332.646,257.009,320.069,284.136,299.909,303.386z"/>
</g>
<g>
</g>
<g>
</g>
<g>
</g>
<g>
</g>
<g>
</g>
<g>
</g>
<g>
</g>
<g>
</g>
<g>
</g>
<g>
</g>
<g>
</g>
<g>
</g>
<g>
</g>
<g>
</g>
<g>
</g>
</svg>
